<?xml version="1.0" encoding="UTF-8"?>
<svg width="512" height="512" version="1.1" viewBox="0 0 135.47 135.47" xmlns="http://www.w3.org/2000/svg">
 <g fill="#00B8D4">
  <path d="m67.733 16.933c-22.756 0-41.275 18.519-41.275 41.275 0 22.756 18.519 41.275 41.275 41.275 22.756 0 41.275-18.519 41.275-41.275 0-22.756-18.519-41.275-41.275-41.275zm0 4.7625c20.196 0 36.513 16.317 36.513 36.513 0 20.196-16.317 36.513-36.513 36.513-20.196 0-36.513-16.317-36.513-36.513 0-20.196 16.317-36.513 36.513-36.513z"/>
  <path d="m67.733 31.221c-14.902 0-26.988 12.086-26.988 26.988 0 14.902 12.086 26.988 26.988 26.988 14.902 0 26.988-12.086 26.988-26.988 0-14.902-12.086-26.988-26.988-26.988zm0 4.7625c12.342 0 22.225 9.8833 22.225 22.225 0 12.342-9.8833 22.225-22.225 22.225-12.342 0-22.225-9.8833-22.225-22.225 0-12.342 9.8833-22.225 22.225-22.225z"/>
  <path d="m67.733 45.508c-7.0485 0-12.7 5.6518-12.7 12.7 0 7.0485 5.6518 12.7 12.7 12.7 7.0485 0 12.7-5.6518 12.7-12.7 0-7.0485-5.6518-12.7-12.7-12.7zm0 4.7625c4.4882 0 7.9375 3.4493 7.9375 7.9375 0 4.4882-3.4493 7.9375-7.9375 7.9375-4.4882 0-7.9375-3.4493-7.9375-7.9375 0-4.4882 3.4493-7.9375 7.9375-7.9375z"/>
  <path d="m19.844 99.219 10.583 20.372h74.083l11.112-20.372z"/>
 </g>
</svg>
